<?xml version="1.0" encoding="utf-8"?>
<!-- Generator: Adobe Illustrator 19.0.0, SVG Export Plug-In . SVG Version: 6.00 Build 0)  -->
<svg version="1.1" id="图层_1" xmlns="http://www.w3.org/2000/svg" xmlns:xlink="http://www.w3.org/1999/xlink" x="0px" y="0px"
   viewBox="0 0 20 20" style="enable-background:new 0 0 20 20;" xml:space="preserve">
<g id="XMLID_1_">
  <path id="XMLID_2_" d="M18.8,14.2l-8.3,4.2c-0.3,0.2-0.7,0.2-1,0l-8.3-4.1c-0.2-0.1-0.5,0-0.7,0.2c-0.1,0.2,0,0.5,0.2,0.7l8.3,4.1
    c0.3,0.2,0.6,0.2,0.9,0.2s0.7-0.1,0.9-0.2l8.3-4.1c0.2-0.1,0.3-0.4,0.2-0.7C19.3,14.2,19,14.1,18.8,14.2z"/>
  <path id="XMLID_10_" d="M0.8,12.1l8.3,4.2c0.3,0.1,0.6,0.2,0.9,0.2s0.6-0.1,0.9-0.2l8.3-4.2c0.2-0.1,0.3-0.4,0.2-0.7
    c-0.1-0.2-0.4-0.3-0.7-0.2l-8.4,4.2c-0.3,0.1-0.6,0.1-0.9,0l-8.3-4.2c-0.2-0.1-0.5,0-0.7,0.2C0.4,11.7,0.5,12,0.8,12.1z"/>
  <path id="XMLID_11_" d="M4,12c1.1,0,2-0.9,2-2c0-0.4-0.2-0.9-0.4-1.2l1.6-2C7.4,6.9,7.7,7,8,7c0.5,0,0.9-0.2,1.2-0.4l0.9,0.7
    C10.1,7.5,10,7.7,10,8c0,1.1,0.9,2,2,2s2-0.9,2-2c0-0.4-0.1-0.8-0.4-1.2l2.5-3C16.4,3.9,16.7,4,17,4c1.1,0,2-0.9,2-2
    c0-1.1-0.9-2-2-2s-2,0.9-2,2c0,0.4,0.1,0.8,0.4,1.2l-2.5,3C12.6,6.1,12.3,6,12,6c-0.5,0-0.9,0.2-1.2,0.4L9.8,5.8
    C9.9,5.5,10,5.3,10,5c0-1.1-0.9-2-2-2S6,3.9,6,5c0,0.4,0.2,0.9,0.4,1.2l-1.6,2C4.6,8.1,4.3,8,4,8c-1.1,0-2,0.9-2,2
    C2,11.1,2.9,12,4,12z"/>
</g>
</svg>

