<?xml version="1.0" encoding="utf-8"?>
<!-- Generator: Adobe Illustrator 19.0.0, SVG Export Plug-In . SVG Version: 6.00 Build 0)  -->
<svg version="1.1" id="图层_1" xmlns="http://www.w3.org/2000/svg" xmlns:xlink="http://www.w3.org/1999/xlink" x="0px" y="0px"
	 viewBox="0 0 20 20" style="enable-background:new 0 0 20 20;" xml:space="preserve">
<path id="XMLID_712_" d="M14.6,6H5.4C5.1,6,4.9,5.9,4.8,5.7L2.4,0.9C2.2,0.5,2.5,0,3,0h14c0.5,0,0.8,0.5,0.6,0.9l-2.4,4.8
	C15.1,5.9,14.9,6,14.6,6z"/>
<path id="XMLID_711_" d="M12.5,13h-5c-0.3,0-0.5-0.2-0.6-0.5L5.3,7.9C5.1,7.4,5.5,7,5.9,7h8.2c0.5,0,0.8,0.4,0.6,0.9l-1.6,4.7
	C13.1,12.8,12.8,13,12.5,13z"/>
<path id="XMLID_710_" d="M11.4,20H8.6c-0.3,0-0.6-0.2-0.7-0.6l-0.8-4.7C7.1,14.4,7.4,14,7.8,14h4.4c0.4,0,0.7,0.4,0.7,0.8l-0.8,4.7
	C12,19.8,11.8,20,11.4,20z"/>
</svg>

