<?xml version="1.0" encoding="utf-8"?>
<!-- Generator: Adobe Illustrator 19.0.0, SVG Export Plug-In . SVG Version: 6.00 Build 0)  -->
<svg version="1.1" id="图层_1" xmlns="http://www.w3.org/2000/svg" xmlns:xlink="http://www.w3.org/1999/xlink" x="0px" y="0px"
   viewBox="0 0 20 20" style="enable-background:new 0 0 20 20;" xml:space="preserve">
<path id="XMLID_724_" d="M10,19.5c-0.3,0-0.7-0.1-0.9-0.2l-8.3-4.1c-0.2-0.1-0.3-0.4-0.2-0.7c0.1-0.2,0.4-0.3,0.7-0.2l8.3,4.1
  c0.3,0.2,0.7,0.2,1,0l8.3-4.2c0.2-0.1,0.5,0,0.7,0.2c0.1,0.2,0,0.5-0.2,0.7l-8.3,4.1C10.7,19.4,10.3,19.5,10,19.5z"/>
<path id="XMLID_719_" d="M10,16.5c-0.3,0-0.6-0.1-0.9-0.2l-8.3-4.2c-0.2-0.1-0.3-0.4-0.2-0.7c0.1-0.2,0.4-0.3,0.7-0.2l8.3,4.2
  c0.3,0.1,0.6,0.1,0.9,0l8.4-4.2c0.2-0.1,0.5,0,0.7,0.2c0.1,0.2,0,0.5-0.2,0.7l-8.3,4.2C10.6,16.5,10.3,16.5,10,16.5z"/>
<path id="XMLID_723_" d="M3.2,10.9l-2-1C1.1,9.9,1,9.7,1,9.5V2c0-0.4,0.4-0.6,0.8-0.5l2,1C3.9,2.6,4,2.7,4,2.9v7.5
  C4,10.8,3.6,11.1,3.2,10.9z"/>
<path id="XMLID_722_" d="M8.2,13l-2-1C6.1,12,6,11.8,6,11.6v-5C6,6.3,6.4,6,6.8,6.2l2,1C8.9,7.2,9,7.4,9,7.6v5C9,13,8.6,13.2,8.2,13
  z"/>
<path id="XMLID_721_" d="M13.7,12.1l-2,1C11.4,13.2,11,13,11,12.6l0-10.8c0-0.2,0.1-0.4,0.3-0.5l2-1C13.6,0.2,14,0.4,14,0.8v10.8
  C14,11.8,13.9,12,13.7,12.1z"/>
<path id="XMLID_720_" d="M18.7,9.7l-2,1c-0.3,0.2-0.8-0.1-0.8-0.5l0-5.6c0-0.2,0.1-0.4,0.3-0.5l2-1C18.6,3,19,3.3,19,3.7v5.6
  C19,9.4,18.9,9.6,18.7,9.7z"/>
</svg>

